<svg width="0" height="0" class="hidden">
  <symbol xmlns="http://www.w3.org/2000/svg" viewBox="0 0 18 18" id="dashboards">
    <path d="M6.10322 0.956253H2.53135C1.5751 0.956253 0.787598 1.74375 0.787598 2.7V6.27188C0.787598 7.22813 1.5751 8.01563 2.53135 8.01563H6.10322C7.05947 8.01563 7.84697 7.22813 7.84697 6.27188V2.72813C7.8751 1.74375 7.0876 0.956253 6.10322 0.956253ZM6.60947 6.3C6.60947 6.58125 6.38447 6.80625 6.10322 6.80625H2.53135C2.2501 6.80625 2.0251 6.58125 2.0251 6.3V2.72813C2.0251 2.44688 2.2501 2.22188 2.53135 2.22188H6.10322C6.38447 2.22188 6.60947 2.44688 6.60947 2.72813V6.3Z"/>
    <path d="M15.4689 0.956253H11.8971C10.9408 0.956253 10.1533 1.74375 10.1533 2.7V6.27188C10.1533 7.22813 10.9408 8.01563 11.8971 8.01563H15.4689C16.4252 8.01563 17.2127 7.22813 17.2127 6.27188V2.72813C17.2127 1.74375 16.4252 0.956253 15.4689 0.956253ZM15.9752 6.3C15.9752 6.58125 15.7502 6.80625 15.4689 6.80625H11.8971C11.6158 6.80625 11.3908 6.58125 11.3908 6.3V2.72813C11.3908 2.44688 11.6158 2.22188 11.8971 2.22188H15.4689C15.7502 2.22188 15.9752 2.44688 15.9752 2.72813V6.3Z"/>
    <path d="M6.10322 9.92813H2.53135C1.5751 9.92813 0.787598 10.7156 0.787598 11.6719V15.2438C0.787598 16.2 1.5751 16.9875 2.53135 16.9875H6.10322C7.05947 16.9875 7.84697 16.2 7.84697 15.2438V11.7C7.8751 10.7156 7.0876 9.92813 6.10322 9.92813ZM6.60947 15.2719C6.60947 15.5531 6.38447 15.7781 6.10322 15.7781H2.53135C2.2501 15.7781 2.0251 15.5531 2.0251 15.2719V11.7C2.0251 11.4188 2.2501 11.1938 2.53135 11.1938H6.10322C6.38447 11.1938 6.60947 11.4188 6.60947 11.7V15.2719Z" />
    <path d="M15.4689 9.92813H11.8971C10.9408 9.92813 10.1533 10.7156 10.1533 11.6719V15.2438C10.1533 16.2 10.9408 16.9875 11.8971 16.9875H15.4689C16.4252 16.9875 17.2127 16.2 17.2127 15.2438V11.7C17.2127 10.7156 16.4252 9.92813 15.4689 9.92813ZM15.9752 15.2719C15.9752 15.5531 15.7502 15.7781 15.4689 15.7781H11.8971C11.6158 15.7781 11.3908 15.5531 11.3908 15.2719V11.7C11.3908 11.4188 11.6158 11.1938 11.8971 11.1938H15.4689C15.7502 11.1938 15.9752 11.4188 15.9752 11.7V15.2719Z"/>
  </symbol>
  <symbol xmlns="http://www.w3.org/2000/svg" viewBox="0 0 18 18" id="lock">
    <path d="M14.625 5.625H6.75V3.9375C6.75 3.34076 6.98705 2.76847 7.40901 2.34651C7.83097 1.92455 8.40326 1.6875 9 1.6875C10.0807 1.6875 11.0531 2.46094 11.2613 3.4868C11.2921 3.63176 11.379 3.75866 11.503 3.83993C11.6269 3.9212 11.7779 3.95027 11.9232 3.92081C12.0685 3.89135 12.1962 3.80575 12.2787 3.68261C12.3612 3.55947 12.3918 3.40875 12.3637 3.2632C12.0459 1.69805 10.6313 0.5625 9 0.5625C8.10518 0.563431 7.24728 0.919309 6.61454 1.55204C5.98181 2.18478 5.62593 3.04268 5.625 3.9375V5.625H3.375C3.07663 5.625 2.79048 5.74353 2.5795 5.9545C2.36853 6.16548 2.25 6.45163 2.25 6.75V14.625C2.25 14.9234 2.36853 15.2095 2.5795 15.4205C2.79048 15.6315 3.07663 15.75 3.375 15.75H14.625C14.9234 15.75 15.2095 15.6315 15.4205 15.4205C15.6315 15.2095 15.75 14.9234 15.75 14.625V6.75C15.75 6.45163 15.6315 6.16548 15.4205 5.9545C15.2095 5.74353 14.9234 5.625 14.625 5.625ZM14.625 14.625H3.375V6.75H14.625V14.625ZM9 7.875C8.52722 7.87516 8.07028 8.04545 7.71271 8.35474C7.35513 8.66404 7.1208 9.09168 7.05254 9.55951C6.98428 10.0273 7.08665 10.5041 7.34095 10.9027C7.59524 11.3012 7.98447 11.595 8.4375 11.7302V12.9375C8.4375 13.0867 8.49676 13.2298 8.60225 13.3352C8.70774 13.4407 8.85082 13.5 9 13.5C9.14918 13.5 9.29226 13.4407 9.39775 13.3352C9.50324 13.2298 9.5625 13.0867 9.5625 12.9375V11.7302C10.0155 11.595 10.4048 11.3012 10.6591 10.9027C10.9133 10.5041 11.0157 10.0273 10.9475 9.55951C10.8792 9.09168 10.6449 8.66404 10.2873 8.35474C9.92972 8.04545 9.47278 7.87516 9 7.875ZM9 10.6875C8.83312 10.6875 8.66999 10.638 8.53124 10.5453C8.39248 10.4526 8.28434 10.3208 8.22048 10.1666C8.15662 10.0125 8.13991 9.84281 8.17246 9.67914C8.20502 9.51547 8.28538 9.36513 8.40338 9.24713C8.52138 9.12913 8.67172 9.04877 8.83539 9.01621C8.99906 8.98366 9.16871 9.00037 9.32289 9.06423C9.47706 9.12809 9.60884 9.23623 9.70155 9.37499C9.79426 9.51374 9.84375 9.67687 9.84375 9.84375C9.84375 10.0675 9.75485 10.2821 9.59662 10.4404C9.43839 10.5986 9.22378 10.6875 9 10.6875Z" />
  </symbol>
  <symbol xmlns="http://www.w3.org/2000/svg" viewBox="0 0 14 16" id="users">
    <path d="M3.2868 12.95C3.34591 12.9944 3.41321 13.0268 3.48484 13.0452C3.55647 13.0636 3.63102 13.0676 3.70423 13.0572C3.77744 13.0467 3.84787 13.022 3.91149 12.9843C3.97511 12.9466 4.03067 12.8967 4.075 12.8375C4.41557 12.3834 4.85719 12.0148 5.36488 11.761C5.87257 11.5072 6.43238 11.375 7 11.375C7.56762 11.375 8.12743 11.5072 8.63513 11.761C9.14282 12.0148 9.58443 12.3834 9.925 12.8375C9.96932 12.8966 10.0248 12.9464 10.0884 12.984C10.152 13.0217 10.2223 13.0464 10.2955 13.0568C10.3686 13.0673 10.443 13.0632 10.5146 13.0449C10.5862 13.0266 10.6534 12.9943 10.7125 12.95C10.7716 12.9057 10.8214 12.8502 10.859 12.7866C10.8967 12.723 10.9214 12.6527 10.9318 12.5795C10.9423 12.5064 10.9382 12.432 10.9199 12.3604C10.9016 12.2888 10.8693 12.2216 10.825 12.1625C10.3269 11.4947 9.66272 10.9689 8.89844 10.6374C9.31728 10.255 9.61073 9.75492 9.74027 9.20276C9.8698 8.6506 9.82938 8.07218 9.62431 7.54341C9.41923 7.01463 9.05908 6.56021 8.59112 6.23978C8.12316 5.91935 7.56926 5.74788 7.00211 5.74788C6.43496 5.74788 5.88106 5.91935 5.4131 6.23978C4.94514 6.56021 4.58499 7.01463 4.37991 7.54341C4.17484 8.07218 4.13441 8.6506 4.26395 9.20276C4.39349 9.75492 4.68694 10.255 5.10578 10.6374C4.33996 10.9683 3.67425 11.4941 3.175 12.1625C3.08541 12.2818 3.04687 12.4317 3.06783 12.5794C3.0888 12.7271 3.16756 12.8604 3.2868 12.95ZM7 6.875C7.33376 6.875 7.66002 6.97397 7.93752 7.1594C8.21503 7.34482 8.43132 7.60837 8.55905 7.91672C8.68677 8.22507 8.72019 8.56437 8.65508 8.89172C8.58996 9.21906 8.42924 9.51974 8.19324 9.75574C7.95724 9.99174 7.65656 10.1525 7.32922 10.2176C7.00187 10.2827 6.66257 10.2493 6.35422 10.1215C6.04587 9.99382 5.78232 9.77753 5.5969 9.50002C5.41147 9.22252 5.3125 8.89626 5.3125 8.5625C5.3125 8.11495 5.49029 7.68572 5.80676 7.36926C6.12322 7.05279 6.55245 6.875 7 6.875ZM12.0625 0.6875H1.9375C1.63913 0.6875 1.35298 0.806026 1.142 1.017C0.931026 1.22798 0.8125 1.51413 0.8125 1.8125V14.1875C0.8125 14.4859 0.931026 14.772 1.142 14.983C1.35298 15.194 1.63913 15.3125 1.9375 15.3125H12.0625C12.3609 15.3125 12.647 15.194 12.858 14.983C13.069 14.772 13.1875 14.4859 13.1875 14.1875V1.8125C13.1875 1.51413 13.069 1.22798 12.858 1.017C12.647 0.806026 12.3609 0.6875 12.0625 0.6875ZM12.0625 14.1875H1.9375V1.8125H12.0625V14.1875ZM4.1875 3.5C4.1875 3.35082 4.24676 3.20774 4.35225 3.10225C4.45774 2.99676 4.60082 2.9375 4.75 2.9375H9.25C9.39918 2.9375 9.54226 2.99676 9.64775 3.10225C9.75324 3.20774 9.8125 3.35082 9.8125 3.5C9.8125 3.64918 9.75324 3.79226 9.64775 3.89775C9.54226 4.00324 9.39918 4.0625 9.25 4.0625H4.75C4.60082 4.0625 4.45774 4.00324 4.35225 3.89775C4.24676 3.79226 4.1875 3.64918 4.1875 3.5Z" />
  </symbol>
  <symbol xmlns="http://www.w3.org/2000/svg" viewBox="0 0 18 18" id="watch">
    <path d="M9 1.6875C7.55373 1.6875 6.13993 2.11637 4.9374 2.91988C3.73486 3.72339 2.7976 4.86544 2.24413 6.20163C1.69067 7.53781 1.54586 9.00811 1.82801 10.4266C2.11017 11.8451 2.80661 13.148 3.82928 14.1707C4.85196 15.1934 6.15492 15.8898 7.57341 16.172C8.99189 16.4541 10.4622 16.3093 11.7984 15.7559C13.1346 15.2024 14.2766 14.2651 15.0801 13.0626C15.8836 11.8601 16.3125 10.4463 16.3125 9C16.3105 7.06123 15.5394 5.20246 14.1685 3.83154C12.7975 2.46063 10.9388 1.68955 9 1.6875ZM9 15.1875C7.77623 15.1875 6.57994 14.8246 5.56241 14.1447C4.54488 13.4648 3.75182 12.4985 3.2835 11.3679C2.81518 10.2372 2.69265 8.99314 2.93139 7.79288C3.17014 6.59262 3.75944 5.49011 4.62478 4.62478C5.49012 3.75944 6.59262 3.17014 7.79288 2.93139C8.99314 2.69264 10.2372 2.81518 11.3679 3.2835C12.4985 3.75181 13.4648 4.54488 14.1447 5.56241C14.8246 6.57994 15.1875 7.77623 15.1875 9C15.1856 10.6405 14.5331 12.2132 13.3732 13.3732C12.2132 14.5331 10.6405 15.1856 9 15.1875ZM13.5 9C13.5 9.14918 13.4407 9.29226 13.3353 9.39775C13.2298 9.50324 13.0867 9.5625 12.9375 9.5625H9C8.85082 9.5625 8.70775 9.50324 8.60226 9.39775C8.49677 9.29226 8.4375 9.14918 8.4375 9V5.0625C8.4375 4.91332 8.49677 4.77024 8.60226 4.66475C8.70775 4.55926 8.85082 4.5 9 4.5C9.14919 4.5 9.29226 4.55926 9.39775 4.66475C9.50324 4.77024 9.5625 4.91332 9.5625 5.0625V8.4375H12.9375C13.0867 8.4375 13.2298 8.49676 13.3353 8.60225C13.4407 8.70774 13.5 8.85082 13.5 9Z" />
  </symbol>
  <symbol xmlns="http://www.w3.org/2000/svg" viewBox="0 0 18 18" id="ruble">
    <path d="M10.4062 10.6875C11.5251 10.6875 12.5982 10.243 13.3894 9.45186C14.1805 8.66069 14.625 7.58763 14.625 6.46875C14.625 5.34987 14.1805 4.27681 13.3894 3.48564C12.5982 2.69447 11.5251 2.25 10.4062 2.25H6.1875C6.03832 2.25 5.89524 2.30926 5.78975 2.41475C5.68426 2.52024 5.625 2.66332 5.625 2.8125V9.5625H3.9375C3.78832 9.5625 3.64524 9.62176 3.53975 9.72725C3.43426 9.83274 3.375 9.97582 3.375 10.125C3.375 10.2742 3.43426 10.4173 3.53975 10.5227C3.64524 10.6282 3.78832 10.6875 3.9375 10.6875H5.625V11.8125H3.9375C3.78832 11.8125 3.64524 11.8718 3.53975 11.9773C3.43426 12.0827 3.375 12.2258 3.375 12.375C3.375 12.5242 3.43426 12.6673 3.53975 12.7727C3.64524 12.8782 3.78832 12.9375 3.9375 12.9375H5.625V15.1875C5.625 15.3367 5.68426 15.4798 5.78975 15.5852C5.89524 15.6907 6.03832 15.75 6.1875 15.75C6.33668 15.75 6.47976 15.6907 6.58525 15.5852C6.69074 15.4798 6.75 15.3367 6.75 15.1875V12.9375H10.125C10.2742 12.9375 10.4173 12.8782 10.5227 12.7727C10.6282 12.6673 10.6875 12.5242 10.6875 12.375C10.6875 12.2258 10.6282 12.0827 10.5227 11.9773C10.4173 11.8718 10.2742 11.8125 10.125 11.8125H6.75V10.6875H10.4062ZM6.75 3.375H10.4062C11.2268 3.375 12.0137 3.70095 12.5939 4.28114C13.1741 4.86133 13.5 5.64824 13.5 6.46875C13.5 7.28926 13.1741 8.07617 12.5939 8.65636C12.0137 9.23655 11.2268 9.5625 10.4062 9.5625H6.75V3.375Z"/>
  </symbol>
  <symbol xmlns="http://www.w3.org/2000/svg" viewBox="0 0 18 18" id="card">
    <path d="M15.75 3.375H2.25C1.95163 3.375 1.66548 3.49353 1.4545 3.7045C1.24353 3.91548 1.125 4.20163 1.125 4.5V13.5C1.125 13.7984 1.24353 14.0845 1.4545 14.2955C1.66548 14.5065 1.95163 14.625 2.25 14.625H15.75C16.0484 14.625 16.3345 14.5065 16.5455 14.2955C16.7565 14.0845 16.875 13.7984 16.875 13.5V4.5C16.875 4.20163 16.7565 3.91548 16.5455 3.7045C16.3345 3.49353 16.0484 3.375 15.75 3.375ZM15.75 4.5V6.1875H2.25V4.5H15.75ZM15.75 13.5H2.25V7.3125H15.75V13.5ZM14.625 11.8125C14.625 11.9617 14.5657 12.1048 14.4602 12.2102C14.3548 12.3157 14.2117 12.375 14.0625 12.375H11.8125C11.6633 12.375 11.5202 12.3157 11.4148 12.2102C11.3093 12.1048 11.25 11.9617 11.25 11.8125C11.25 11.6633 11.3093 11.5202 11.4148 11.4148C11.5202 11.3093 11.6633 11.25 11.8125 11.25H14.0625C14.2117 11.25 14.3548 11.3093 14.4602 11.4148C14.5657 11.5202 14.625 11.6633 14.625 11.8125ZM10.125 11.8125C10.125 11.9617 10.0657 12.1048 9.96025 12.2102C9.85476 12.3157 9.71168 12.375 9.5625 12.375H8.4375C8.28832 12.375 8.14524 12.3157 8.03975 12.2102C7.93426 12.1048 7.875 11.9617 7.875 11.8125C7.875 11.6633 7.93426 11.5202 8.03975 11.4148C8.14524 11.3093 8.28832 11.25 8.4375 11.25H9.5625C9.71168 11.25 9.85476 11.3093 9.96025 11.4148C10.0657 11.5202 10.125 11.6633 10.125 11.8125Z" />
  </symbol>
  <symbol xmlns="http://www.w3.org/2000/svg" viewBox="0 0 18 18" id="contract">
    <path d="M10.5 1.5H4.5C4.10218 1.5 3.72064 1.65804 3.43934 1.93934C3.15804 2.22064 3 2.60218 3 3V15C3 15.3978 3.15804 15.7794 3.43934 16.0607C3.72064 16.342 4.10218 16.5 4.5 16.5H13.5C13.8978 16.5 14.2794 16.342 14.5607 16.0607C14.842 15.7794 15 15.3978 15 15V6L10.5 1.5Z" stroke="#DEE4EE" stroke-width="1.2" stroke-linecap="round" stroke-linejoin="round" />
    <path d="M10.5 1.5V6H15" stroke="#DEE4EE" stroke-width="1.2" stroke-linecap="round" stroke-linejoin="round" />
    <path d="M12 9.75H6" stroke="#DEE4EE" stroke-width="1.2" stroke-linecap="round" stroke-linejoin="round" />
    <path d="M12 12.75H6" stroke="#DEE4EE" stroke-width="1.2" stroke-linecap="round" stroke-linejoin="round" />
    <path d="M7.5 6.75H6.75H6" stroke="#DEE4EE" stroke-width="1.2" stroke-linecap="round" stroke-linejoin="round" />
  </symbol>
  <symbol xmlns="http://www.w3.org/2000/svg" viewBox="0 0 18 18" id="list-users">
    <path d="M12.75 15.75V14.25C12.75 13.4544 12.4339 12.6913 11.8713 12.1287C11.3087 11.5661 10.5456 11.25 9.75 11.25H3.75C2.95435 11.25 2.19129 11.5661 1.62868 12.1287C1.06607 12.6913 0.75 13.4544 0.75 14.25V15.75" stroke="#DEE4EE" stroke-width="1.2" stroke-linecap="round" stroke-linejoin="round" />
    <path d="M6.75 8.25C8.40685 8.25 9.75 6.90685 9.75 5.25C9.75 3.59315 8.40685 2.25 6.75 2.25C5.09315 2.25 3.75 3.59315 3.75 5.25C3.75 6.90685 5.09315 8.25 6.75 8.25Z" stroke="#DEE4EE" stroke-width="1.2" stroke-linecap="round" stroke-linejoin="round" />
    <path d="M17.25 15.75V14.25C17.2495 13.5853 17.0283 12.9396 16.621 12.4142C16.2138 11.8889 15.6436 11.5136 15 11.3475" stroke="#DEE4EE" stroke-width="1.2" stroke-linecap="round" stroke-linejoin="round" />
    <path d="M12 2.34747C12.6453 2.5127 13.2173 2.888 13.6257 3.41421C14.0342 3.94041 14.2559 4.5876 14.2559 5.25372C14.2559 5.91985 14.0342 6.56703 13.6257 7.09324C13.2173 7.61945 12.6453 7.99475 12 8.15997" stroke="#DEE4EE" stroke-width="1.2" stroke-linecap="round" stroke-linejoin="round" />
  </symbol>
  <symbol xmlns="http://www.w3.org/2000/svg" viewBox="0 0 18 18" id="mail">
    <path d="M15.7499 2.70001H2.2499C1.29365 2.70001 0.478027 3.48751 0.478027 4.47189V13.5844C0.478027 14.5406 1.26553 15.3563 2.2499 15.3563H15.7499C16.7062 15.3563 17.5218 14.5688 17.5218 13.5844V4.44376C17.5218 3.48751 16.7062 2.70001 15.7499 2.70001ZM15.7499 3.96564C15.778 3.96564 15.8062 3.96564 15.8343 3.96564L8.9999 8.35314L2.16553 3.96564C2.19365 3.96564 2.22178 3.96564 2.2499 3.96564H15.7499ZM15.7499 14.0344H2.2499C1.96865 14.0344 1.74365 13.8094 1.74365 13.5281V5.20314L8.3249 9.42189C8.52178 9.56251 8.74678 9.61876 8.97178 9.61876C9.19678 9.61876 9.42178 9.56251 9.61865 9.42189L16.1999 5.20314V13.5563C16.2562 13.8375 16.0312 14.0344 15.7499 14.0344Z" />
  </symbol>
  <symbol xmlns="http://www.w3.org/2000/svg" viewBox="0 0 18 18" id="account">
    <path d="M9 1.6875C7.55373 1.6875 6.13993 2.11637 4.9374 2.91988C3.73486 3.72339 2.7976 4.86544 2.24413 6.20163C1.69067 7.53781 1.54586 9.00811 1.82801 10.4266C2.11017 11.8451 2.80661 13.148 3.82928 14.1707C4.85196 15.1934 6.15492 15.8898 7.57341 16.172C8.99189 16.4541 10.4622 16.3093 11.7984 15.7559C13.1346 15.2024 14.2766 14.2651 15.0801 13.0626C15.8836 11.8601 16.3125 10.4463 16.3125 9C16.3105 7.06123 15.5394 5.20246 14.1685 3.83154C12.7975 2.46063 10.9388 1.68955 9 1.6875ZM5.20875 13.8867C5.61568 13.2503 6.17626 12.7266 6.83882 12.3638C7.50139 12.001 8.24462 11.8109 9 11.8109C9.75539 11.8109 10.4986 12.001 11.1612 12.3638C11.8237 12.7266 12.3843 13.2503 12.7913 13.8867C11.7073 14.7298 10.3732 15.1875 9 15.1875C7.62678 15.1875 6.29274 14.7298 5.20875 13.8867ZM6.75 8.4375C6.75 7.99249 6.88196 7.55748 7.1292 7.18747C7.37643 6.81746 7.72783 6.52907 8.13897 6.35877C8.5501 6.18847 9.0025 6.14392 9.43896 6.23073C9.87541 6.31755 10.2763 6.53184 10.591 6.84651C10.9057 7.16118 11.12 7.56209 11.2068 7.99855C11.2936 8.435 11.249 8.8874 11.0787 9.29854C10.9084 9.70967 10.62 10.0611 10.25 10.3083C9.88003 10.5555 9.44501 10.6875 9 10.6875C8.40327 10.6875 7.83097 10.4504 7.40901 10.0285C6.98706 9.60653 6.75 9.03424 6.75 8.4375ZM13.6238 13.107C12.9964 12.1979 12.1143 11.4946 11.0883 11.0855C11.6394 10.6514 12.0416 10.0564 12.2388 9.38313C12.4361 8.7099 12.4187 7.99192 12.189 7.32906C11.9593 6.66619 11.5287 6.09137 10.9572 5.68455C10.3856 5.27772 9.70154 5.05911 9 5.05911C8.29846 5.05911 7.61436 5.27772 7.04283 5.68455C6.47129 6.09137 6.04074 6.66619 5.81104 7.32906C5.58134 7.99192 5.56391 8.7099 5.76118 9.38313C5.95845 10.0564 6.3606 10.6514 6.91172 11.0855C5.88573 11.4946 5.0036 12.1979 4.37625 13.107C3.58353 12.2155 3.0654 11.1139 2.88425 9.93481C2.70311 8.7557 2.86668 7.54938 3.35526 6.46108C3.84384 5.37279 4.6366 4.44894 5.63808 3.80077C6.63957 3.1526 7.80707 2.80775 9 2.80775C10.1929 2.80775 11.3604 3.1526 12.3619 3.80077C13.3634 4.44894 14.1562 5.37279 14.6447 6.46108C15.1333 7.54938 15.2969 8.7557 15.1158 9.93481C14.9346 11.1139 14.4165 12.2155 13.6238 13.107Z" />
  </symbol>
  <symbol xmlns="http://www.w3.org/2000/svg" viewBox="0 0 12 8" id="arrow">
    <path fill-rule="evenodd" clip-rule="evenodd" d="M0.410582 7.08924C0.736019 7.41467 1.26366 7.41467 1.58909 7.08924L5.99984 2.67849L10.4106 7.08923C10.736 7.41467 11.2637 7.41467 11.5891 7.08923C11.9145 6.7638 11.9145 6.23616 11.5891 5.91072L6.58909 0.910723C6.26366 0.585286 5.73602 0.585286 5.41058 0.910723L0.410581 5.91072C0.0851445 6.23616 0.0851445 6.7638 0.410582 7.08924Z" />
  </symbol>
  <symbol xmlns="http://www.w3.org/2000/svg" viewBox="0 0 18 18" id="bell" fill='none'>
    <g clip-path="url(#clip0_2434_26122)">
      <path d="M13.5 6.00001C13.5 4.80653 13.0259 3.66194 12.182 2.81803C11.3381 1.97411 10.1935 1.50001 9 1.50001C7.80653 1.50001 6.66193 1.97411 5.81802 2.81803C4.97411 3.66194 4.5 4.80653 4.5 6.00001C4.5 11.25 2.25 12.75 2.25 12.75H15.75C15.75 12.75 13.5 11.25 13.5 6.00001Z" stroke="#64748B" stroke-width="1.5" stroke-linecap="round" stroke-linejoin="round" />
      <path d="M10.2981 15.75C10.1663 15.9773 9.97701 16.166 9.74929 16.2972C9.52158 16.4283 9.26341 16.4973 9.00062 16.4973C8.73784 16.4973 8.47967 16.4283 8.25196 16.2972C8.02424 16.166 7.83498 15.9773 7.70312 15.75" stroke="#64748B" stroke-width="1.5" stroke-linecap="round" stroke-linejoin="round" />
    </g>
    <defs>
      <clipPath id="clip0_2434_26122">
        <rect width="18" height="18" fill="white" />
      </clipPath>
    </defs>
  </symbol>
  <symbol xmlns="http://www.w3.org/2000/svg" viewBox="0 0 18 18" id="message">
    <path d="M15.75 8.62501C15.7526 9.61491 15.5213 10.5914 15.075 11.475C14.5458 12.5338 13.7323 13.4244 12.7256 14.047C11.7189 14.6695 10.5587 14.9995 9.375 15C8.3851 15.0026 7.40859 14.7713 6.525 14.325L2.25 15.75L3.675 11.475C3.2287 10.5914 2.99742 9.61491 3 8.62501C3.00046 7.44132 3.33046 6.28114 3.95304 5.27442C4.57562 4.26769 5.46619 3.45418 6.525 2.92501C7.40859 2.4787 8.3851 2.24743 9.375 2.25001H9.75C11.3133 2.33625 12.7898 2.99608 13.8969 4.10315C15.0039 5.21022 15.6638 6.68675 15.75 8.25001V8.62501Z" stroke="#64748B" stroke-width="1.5" stroke-linecap="round" stroke-linejoin="round" />
  </symbol>
  <symbol xmlns="http://www.w3.org/2000/svg" viewBox="0 0 16 16" id="calendar">
    <path fill-rule="evenodd" clip-rule="evenodd" d="M3.33334 3.33334C2.96515 3.33334 2.66668 3.63182 2.66668 4.00001V13.3333C2.66668 13.7015 2.96515 14 3.33334 14H12.6667C13.0349 14 13.3333 13.7015 13.3333 13.3333V4.00001C13.3333 3.63182 13.0349 3.33334 12.6667 3.33334H3.33334ZM1.33334 4.00001C1.33334 2.89544 2.22877 2.00001 3.33334 2.00001H12.6667C13.7712 2.00001 14.6667 2.89544 14.6667 4.00001V13.3333C14.6667 14.4379 13.7712 15.3333 12.6667 15.3333H3.33334C2.22877 15.3333 1.33334 14.4379 1.33334 13.3333V4.00001Z"/>
    <path fill-rule="evenodd" clip-rule="evenodd" d="M10.6667 0.666672C11.0349 0.666672 11.3333 0.965149 11.3333 1.33334V4.00001C11.3333 4.3682 11.0349 4.66667 10.6667 4.66667C10.2985 4.66667 10 4.3682 10 4.00001V1.33334C10 0.965149 10.2985 0.666672 10.6667 0.666672Z" />
    <path fill-rule="evenodd" clip-rule="evenodd" d="M5.33334 0.666672C5.70153 0.666672 6.00001 0.965149 6.00001 1.33334V4.00001C6.00001 4.3682 5.70153 4.66667 5.33334 4.66667C4.96515 4.66667 4.66668 4.3682 4.66668 4.00001V1.33334C4.66668 0.965149 4.96515 0.666672 5.33334 0.666672Z"/>
    <path fill-rule="evenodd" clip-rule="evenodd" d="M1.33334 6.66667C1.33334 6.29848 1.63182 6.00001 2.00001 6.00001H14C14.3682 6.00001 14.6667 6.29848 14.6667 6.66667C14.6667 7.03486 14.3682 7.33334 14 7.33334H2.00001C1.63182 7.33334 1.33334 7.03486 1.33334 6.66667Z"/>
  </symbol>
  <symbol xmlns="http://www.w3.org/2000/svg" viewBox="0 0 22 24" id="lock-2">
    <path d="M16.1566 7.81908V6.91897C16.1566 4.1494 14.0941 1.79526 11.4816 1.58754C10.0379 1.44906 8.59414 1.96836 7.52852 2.93771C6.46289 3.90706 5.84414 5.29185 5.84414 6.71125V7.81908C3.85039 8.1999 2.33789 9.9655 2.33789 12.1119V18.3781C2.33789 20.663 4.19414 22.4978 6.42852 22.4978H15.5035C17.7723 22.4978 19.6285 20.6284 19.6285 18.3435V12.0427C19.6629 9.9655 18.1504 8.23452 16.1566 7.81908ZM8.55977 4.08016C9.31602 3.38777 10.3129 3.04157 11.3441 3.14543C13.166 3.31853 14.6098 4.98027 14.6098 6.91897V7.71522H7.39102V6.67663C7.39102 5.70728 7.80352 4.77255 8.55977 4.08016ZM18.116 18.3781C18.116 19.7975 16.9473 20.9746 15.5379 20.9746H6.46289C5.05352 20.9746 3.91914 19.8321 3.91914 18.4127V12.1119C3.91914 10.554 5.15664 9.30773 6.70352 9.30773H15.2973C16.8441 9.30773 18.116 10.554 18.116 12.0427V18.3781Z" />
    <path d="M10.9996 12.9082C10.5871 12.9082 10.209 13.2544 10.209 13.7045V17.3395C10.209 17.755 10.5527 18.1358 10.9996 18.1358C11.4121 18.1358 11.7902 17.7896 11.7902 17.3395V13.6698C11.7902 13.2544 11.4121 12.9082 10.9996 12.9082Z" />
  </symbol>
  <symbol xmlns="http://www.w3.org/2000/svg" viewBox="0 0 10 5" id="arrow-fill">
    <path d="M0 0L5 5L10 0H0Z"/>
  </symbol>
  <symbol xmlns="http://www.w3.org/2000/svg" viewBox="0 0 16 16" id="search">
    <path fill-rule="evenodd" clip-rule="evenodd" d="M7.33331 2.66665C4.75598 2.66665 2.66665 4.75598 2.66665 7.33331C2.66665 9.91064 4.75598 12 7.33331 12C9.91064 12 12 9.91064 12 7.33331C12 4.75598 9.91064 2.66665 7.33331 2.66665ZM1.33331 7.33331C1.33331 4.0196 4.0196 1.33331 7.33331 1.33331C10.647 1.33331 13.3333 4.0196 13.3333 7.33331C13.3333 10.647 10.647 13.3333 7.33331 13.3333C4.0196 13.3333 1.33331 10.647 1.33331 7.33331Z" />
    <path fill-rule="evenodd" clip-rule="evenodd" d="M10.6286 10.6286C10.889 10.3683 11.3111 10.3683 11.5714 10.6286L14.4714 13.5286C14.7318 13.789 14.7318 14.2111 14.4714 14.4714C14.2111 14.7318 13.789 14.7318 13.5286 14.4714L10.6286 11.5714C10.3683 11.3111 10.3683 10.889 10.6286 10.6286Z" />
  </symbol>
  <symbol xmlns="http://www.w3.org/2000/svg" viewBox="0 0 10 10" id="plus">
    <path d="M9.66671 5.66665H5.66671V9.66665H4.33337V5.66665H0.333374V4.33331H4.33337V0.333313H5.66671V4.33331H9.66671V5.66665Z"/>
  </symbol>
  <symbol xmlns="http://www.w3.org/2000/svg" viewBox="0 0 16 16" id="dow">
    <mask id="path-1-inside-1_2373_3085" fill="white">
      <path d="M13 10V12C13 12.2652 12.8829 12.5196 12.6746 12.7071C12.4662 12.8946 12.1836 13 11.8889 13H4.11111C3.81643 13 3.53381 12.8946 3.32544 12.7071C3.11706 12.5196 3 12.2652 3 12V10" />
    </mask>
    <path d="M3 12H2H3ZM12 10V12H14V10H12ZM12 12C12 11.9844 12.0036 11.9719 12.007 11.9646C12.0103 11.9575 12.0117 11.9583 12.0056 11.9638L13.3435 13.4504C13.749 13.0854 14 12.5665 14 12H12ZM12.0056 11.9638C11.9909 11.9771 11.9504 12 11.8889 12V14C12.4168 14 12.9415 13.8122 13.3435 13.4504L12.0056 11.9638ZM11.8889 12H4.11111V14H11.8889V12ZM4.11111 12C4.04963 12 4.00911 11.9771 3.9944 11.9638L2.65647 13.4504C3.05851 13.8122 3.58323 14 4.11111 14V12ZM3.9944 11.9638C3.98826 11.9583 3.98974 11.9575 3.99299 11.9646C3.99636 11.9719 4 11.9844 4 12H2C2 12.5665 2.25096 13.0854 2.65647 13.4504L3.9944 11.9638ZM4 12V10H2V12H4Z" fill="#A8B0B9" mask="url(#path-1-inside-1_2373_3085)" />
    <mask id="path-3-inside-2_2373_3085" fill="white">
      <path d="M5 7L8 10L11 7" />
    </mask>
    <path d="M8 10L7.29289 10.7071L8 11.4142L8.70711 10.7071L8 10ZM4.29289 7.70711L7.29289 10.7071L8.70711 9.29289L5.70711 6.29289L4.29289 7.70711ZM8.70711 10.7071L11.7071 7.70711L10.2929 6.29289L7.29289 9.29289L8.70711 10.7071Z" fill="#A8B0B9" mask="url(#path-3-inside-2_2373_3085)" />
    <path d="M8 10V3" stroke="#A8B0B9" />
  </symbol>
  <symbol xmlns="http://www.w3.org/2000/svg" viewBox="0 0 16 16" id="profile">
    <path d="M13.3333 4.00002H8.00001L6.66668 2.66669H2.66668C1.93334 2.66669 1.34001 3.26669 1.34001 4.00002L1.33334 12C1.33334 12.7334 1.93334 13.3334 2.66668 13.3334H13.3333C14.0667 13.3334 14.6667 12.7334 14.6667 12V5.33335C14.6667 4.60002 14.0667 4.00002 13.3333 4.00002ZM13.3333 12H2.66668V4.00002H6.11334L7.44668 5.33335H13.3333V12ZM10 8.66669C10.7333 8.66669 11.3333 8.06669 11.3333 7.33335C11.3333 6.60002 10.7333 6.00002 10 6.00002C9.26668 6.00002 8.66668 6.60002 8.66668 7.33335C8.66668 8.06669 9.26668 8.66669 10 8.66669ZM7.33334 11.3334H12.6667V10.6667C12.6667 9.78002 10.8867 9.33335 10 9.33335C9.11334 9.33335 7.33334 9.78002 7.33334 10.6667V11.3334Z" />
  </symbol>
  <symbol xmlns="http://www.w3.org/2000/svg" viewBox="0 0 24 24" id="check">
    <path d="M12 2.25C10.0716 2.25 8.18657 2.82183 6.58319 3.89317C4.97982 4.96451 3.73013 6.48726 2.99218 8.26884C2.25422 10.0504 2.06114 12.0108 2.43735 13.9021C2.81355 15.7934 3.74215 17.5307 5.10571 18.8943C6.46928 20.2579 8.20656 21.1865 10.0979 21.5627C11.9892 21.9389 13.9496 21.7458 15.7312 21.0078C17.5127 20.2699 19.0355 19.0202 20.1068 17.4168C21.1782 15.8134 21.75 13.9284 21.75 12C21.7473 9.41498 20.7192 6.93661 18.8913 5.10872C17.0634 3.28084 14.585 2.25273 12 2.25ZM12 20.25C10.3683 20.25 8.77326 19.7661 7.41655 18.8596C6.05984 17.9531 5.00242 16.6646 4.378 15.1571C3.75358 13.6496 3.5902 11.9908 3.90853 10.3905C4.22685 8.79016 5.01259 7.32015 6.16637 6.16637C7.32016 5.01259 8.79017 4.22685 10.3905 3.90852C11.9909 3.59019 13.6497 3.75357 15.1571 4.37799C16.6646 5.00242 17.9531 6.05984 18.8596 7.41655C19.7661 8.77325 20.25 10.3683 20.25 12C20.2475 14.1873 19.3775 16.2843 17.8309 17.8309C16.2843 19.3775 14.1873 20.2475 12 20.25ZM15.531 9.59496C15.6008 9.66462 15.6561 9.74734 15.6938 9.83838C15.7316 9.92943 15.751 10.027 15.751 10.1256C15.751 10.2242 15.7316 10.3217 15.6938 10.4128C15.6561 10.5038 15.6008 10.5866 15.531 10.6562L11.781 14.4062C11.7114 14.4759 11.6287 14.5313 11.5376 14.569C11.4466 14.6068 11.349 14.6262 11.2504 14.6262C11.1519 14.6262 11.0543 14.6068 10.9632 14.569C10.8722 14.5313 10.7894 14.4759 10.7198 14.4062L8.46979 12.1562C8.32906 12.0155 8.25 11.8246 8.25 11.6256C8.25 11.4266 8.32906 11.2357 8.46979 11.095C8.61052 10.9542 8.80139 10.8752 9.00042 10.8752C9.19944 10.8752 9.39031 10.9542 9.53104 11.095L11.2504 12.8153L14.4698 9.59496C14.5394 9.52523 14.6222 9.46991 14.7132 9.43217C14.8043 9.39443 14.9019 9.375 15.0004 9.375C15.099 9.375 15.1966 9.39443 15.2876 9.43217C15.3787 9.46991 15.4614 9.52523 15.531 9.59496Z" />
  </symbol>
  <symbol xmlns="http://www.w3.org/2000/svg" viewBox="0 0 16 16" id="edit" fill="none">
    <path d="M7.33334 2.66663H2.66668C2.31305 2.66663 1.97392 2.8071 1.72387 3.05715C1.47382 3.3072 1.33334 3.64634 1.33334 3.99996V13.3333C1.33334 13.6869 1.47382 14.0261 1.72387 14.2761C1.97392 14.5262 2.31305 14.6666 2.66668 14.6666H12C12.3536 14.6666 12.6928 14.5262 12.9428 14.2761C13.1929 14.0261 13.3333 13.6869 13.3333 13.3333V8.66663" stroke-linecap="round" stroke-linejoin="round" />
    <path d="M12.3333 1.66665C12.5986 1.40144 12.9583 1.25244 13.3333 1.25244C13.7084 1.25244 14.0681 1.40144 14.3333 1.66665C14.5986 1.93187 14.7476 2.29158 14.7476 2.66665C14.7476 3.04173 14.5986 3.40144 14.3333 3.66665L8.00001 9.99999L5.33334 10.6667L6.00001 7.99999L12.3333 1.66665Z" stroke-linecap="round" stroke-linejoin="round" />
  </symbol>
  <symbol xmlns="http://www.w3.org/2000/svg" viewBox="0 0 16 16" id="arrow-right-circle" fill="none">
    <g clip-path="url(#clip0_2434_25225)">
      <path d="M7.99967 14.6673C11.6816 14.6673 14.6663 11.6825 14.6663 8.00065C14.6663 4.31875 11.6816 1.33398 7.99967 1.33398C4.31778 1.33398 1.33301 4.31875 1.33301 8.00065C1.33301 11.6825 4.31778 14.6673 7.99967 14.6673Z" stroke-linecap="round" stroke-linejoin="round" />
      <path d="M8 10.6663L10.6667 7.99967L8 5.33301" stroke-linecap="round" stroke-linejoin="round" />
      <path d="M5.33301 8H10.6663" stroke-linecap="round" stroke-linejoin="round" />
    </g>
    <defs>
      <clipPath id="clip0_2434_25225">
        <rect width="16" height="16" fill="white" />
      </clipPath>
    </defs>
  </symbol>
  <symbol xmlns="http://www.w3.org/2000/svg" viewBox="0 0 16 12" id="check-2" >
    <path d="M1 6L5.66667 10.5L15 1.5" stroke="#0B704E" stroke-width="2" />
  </symbol>
  <symbol xmlns="http://www.w3.org/2000/svg" viewBox="0 0 10 6" id="check-3" >
    <path d="M9.09434 0.433879L9.08925 0.42811L9.08373 0.422749C8.91557 0.259492 8.65008 0.259084 8.48144 0.421529L3.81069 4.81952L1.53133 2.6677C1.36269 2.50514 1.09711 2.50551 0.928919 2.66881C0.757027 2.83569 0.757027 3.10437 0.928919 3.27126L0.928905 3.27127L0.93094 3.27319L3.28247 5.49314C3.42667 5.63253 3.62043 5.7 3.7976 5.7C3.99025 5.7 4.17027 5.63088 4.31267 5.49321L9.05231 1.03034C9.24139 0.865685 9.2416 0.600676 9.09434 0.433879Z" stroke-width="0.4" />
  </symbol>
  <symbol xmlns="http://www.w3.org/2000/svg" viewBox="0 0 10 10" id="cross" fill="none">
      <path d="M1 9L9 1M9 9L1 1" stroke="#D42424" stroke-width="1.5" />
  </symbol>
  <symbol xmlns="http://www.w3.org/2000/svg" viewBox="0 0 16 16" id="save" fill="none">
    <path d="M6 7.33366L8 9.33366L14.6667 2.66699" stroke-linecap="round" stroke-linejoin="round" />
    <path d="M14 8V12.6667C14 13.0203 13.8595 13.3594 13.6095 13.6095C13.3594 13.8595 13.0203 14 12.6667 14H3.33333C2.97971 14 2.64057 13.8595 2.39052 13.6095C2.14048 13.3594 2 13.0203 2 12.6667V3.33333C2 2.97971 2.14048 2.64057 2.39052 2.39052C2.64057 2.14048 2.97971 2 3.33333 2H10.6667" stroke-linecap="round" stroke-linejoin="round" />
  </symbol>
  <symbol xmlns="http://www.w3.org/2000/svg" viewBox="0 0 16 16" id="filter">
    <path d="M6.66667 12H9.33333V10.6667H6.66667V12ZM2 4V5.33333H14V4H2ZM4 8.66667H12V7.33333H4V8.66667Z" fill="#A8B0B9" />
  </symbol>
  <symbol xmlns="http://www.w3.org/2000/svg" viewBox="0 0 28 28" id="upload">
    <path fill-rule="evenodd" clip-rule="evenodd" d="M3.50016 16.333C4.14449 16.333 4.66683 16.8553 4.66683 17.4997V22.1663C4.66683 22.4758 4.78974 22.7725 5.00854 22.9913C5.22733 23.2101 5.52408 23.333 5.83349 23.333H22.1668C22.4762 23.333 22.773 23.2101 22.9918 22.9913C23.2106 22.7725 23.3335 22.4758 23.3335 22.1663V17.4997C23.3335 16.8553 23.8558 16.333 24.5002 16.333C25.1445 16.333 25.6668 16.8553 25.6668 17.4997V22.1663C25.6668 23.0946 25.2981 23.9848 24.6417 24.6412C23.9853 25.2976 23.0951 25.6663 22.1668 25.6663H5.83349C4.90524 25.6663 4.015 25.2976 3.35862 24.6412C2.70224 23.9848 2.3335 23.0946 2.3335 22.1663V17.4997C2.3335 16.8553 2.85583 16.333 3.50016 16.333Z" />
    <path fill-rule="evenodd" clip-rule="evenodd" d="M13.175 2.67472C13.6307 2.2191 14.3693 2.2191 14.825 2.67472L20.6583 8.50805C21.1139 8.96366 21.1139 9.70235 20.6583 10.158C20.2027 10.6136 19.464 10.6136 19.0084 10.158L14 5.14959L8.99162 10.158C8.53601 10.6136 7.79732 10.6136 7.34171 10.158C6.8861 9.70235 6.8861 8.96366 7.34171 8.50805L13.175 2.67472Z" />
    <path fill-rule="evenodd" clip-rule="evenodd" d="M14.0002 2.33301C14.6445 2.33301 15.1668 2.85534 15.1668 3.49967V17.4997C15.1668 18.144 14.6445 18.6663 14.0002 18.6663C13.3558 18.6663 12.8335 18.144 12.8335 17.4997V3.49967C12.8335 2.85534 13.3558 2.33301 14.0002 2.33301Z" />
  </symbol>
  <symbol xmlns="http://www.w3.org/2000/svg" viewBox="0 0 16 17" id="circle-plus">
    <path d="M7.99967 15.1663C11.6816 15.1663 14.6663 12.1816 14.6663 8.49967C14.6663 4.81778 11.6816 1.83301 7.99967 1.83301C4.31778 1.83301 1.33301 4.81778 1.33301 8.49967C1.33301 12.1816 4.31778 15.1663 7.99967 15.1663Z" stroke-linecap="round" stroke-linejoin="round" />
    <path d="M8 5.83301V11.1663" stroke-linecap="round" stroke-linejoin="round" />
    <path d="M5.33301 8.5H10.6663" stroke-linecap="round" stroke-linejoin="round" />
  </symbol>
  <symbol xmlns="http://www.w3.org/2000/svg" viewBox="0 0 8 8" id="close">
    <path fill-rule="evenodd" clip-rule="evenodd" d="M7.35355 1.35355C7.54882 1.15829 7.54882 0.841709 7.35355 0.646447C7.15829 0.451184 6.84171 0.451184 6.64645 0.646447L4 3.29289L1.35355 0.646447C1.15829 0.451184 0.841709 0.451184 0.646447 0.646447C0.451184 0.841709 0.451184 1.15829 0.646447 1.35355L3.29289 4L0.646447 6.64645C0.451184 6.84171 0.451184 7.15829 0.646447 7.35355C0.841709 7.54882 1.15829 7.54882 1.35355 7.35355L4 4.70711L6.64645 7.35355C6.84171 7.54882 7.15829 7.54882 7.35355 7.35355C7.54882 7.15829 7.54882 6.84171 7.35355 6.64645L4.70711 4L7.35355 1.35355Z" />
  </symbol>
  <symbol xmlns="http://www.w3.org/2000/svg" viewBox="0 0 511.414 511.414" id="box">
    <path d="M497.695 108.838a16.002 16.002 0 0 0-9.92-14.8L261.787 1.2a16.003 16.003 0 0 0-12.16 0L23.639 94.038a16 16 0 0 0-9.92 14.8v293.738a16 16 0 0 0 9.92 14.8l225.988 92.838a15.947 15.947 0 0 0 12.14-.001c.193-.064-8.363 3.445 226.008-92.837a16 16 0 0 0 9.92-14.8zm-241.988 76.886-83.268-34.207L352.39 73.016l88.837 36.495zm-209.988-51.67 71.841 29.513v83.264c0 8.836 7.164 16 16 16s16-7.164 16-16v-70.118l90.147 37.033v257.797L45.719 391.851zM255.707 33.297l55.466 22.786-179.951 78.501-61.035-25.074zm16 180.449 193.988-79.692v257.797l-193.988 79.692z" ></path>
  </symbol>
  <symbol xmlns="http://www.w3.org/2000/svg" viewBox="0 0 14 15" id="user">
    <path d="M12.625 0.75H1.375C1.07663 0.75 0.790483 0.868526 0.579505 1.0795C0.368526 1.29048 0.25 1.57663 0.25 1.875V13.125C0.25 13.4234 0.368526 13.7095 0.579505 13.9205C0.790483 14.1315 1.07663 14.25 1.375 14.25H12.625C12.9234 14.25 13.2095 14.1315 13.4205 13.9205C13.6315 13.7095 13.75 13.4234 13.75 13.125V1.875C13.75 1.57663 13.6315 1.29048 13.4205 1.0795C13.2095 0.868526 12.9234 0.75 12.625 0.75ZM4.75 6.9375C4.75 6.49249 4.88196 6.05748 5.12919 5.68747C5.37643 5.31746 5.72783 5.02907 6.13896 4.85877C6.5501 4.68847 7.0025 4.64392 7.43895 4.73073C7.87541 4.81755 8.27632 5.03184 8.59099 5.34651C8.90566 5.66118 9.11995 6.06209 9.20677 6.49855C9.29358 6.935 9.24903 7.3874 9.07873 7.79854C8.90843 8.20967 8.62004 8.56107 8.25003 8.80831C7.88002 9.05554 7.44501 9.1875 7 9.1875C6.40326 9.1875 5.83097 8.95045 5.40901 8.52849C4.98705 8.10653 4.75 7.53424 4.75 6.9375ZM2.82836 13.125C3.11621 12.4164 3.57898 11.7922 4.17344 11.3109C4.97382 10.6648 5.97139 10.3124 7 10.3124C8.02861 10.3124 9.02618 10.6648 9.82656 11.3109C10.421 11.7922 10.8838 12.4164 11.1716 13.125H2.82836ZM12.625 13.125H12.367C12.1168 12.3288 11.6925 11.5984 11.1248 10.9867C10.557 10.3751 9.86014 9.8976 9.08477 9.58898C9.63676 9.1554 10.0398 8.5605 10.2379 7.8871C10.4359 7.2137 10.4191 6.4953 10.1897 5.83192C9.96031 5.16854 9.52979 4.59318 8.95809 4.18595C8.38638 3.77871 7.70192 3.55986 7 3.55986C6.29808 3.55986 5.61362 3.77871 5.04191 4.18595C4.4702 4.59318 4.03969 5.16854 3.81031 5.83192C3.58092 6.4953 3.56408 7.2137 3.76212 7.8871C3.96016 8.5605 4.36324 9.1554 4.91523 9.58898C4.13986 9.8976 3.44298 10.3751 2.87524 10.9867C2.3075 11.5984 1.88315 12.3288 1.63305 13.125H1.375V1.875H12.625V13.125Z" />
  </symbol>
  <symbol xmlns="http://www.w3.org/2000/svg" viewBox="0 0 18 19" id="phone">
    <path d="M10.7065 3.16681C10.7256 3.09542 10.7586 3.0285 10.8035 2.96986C10.8485 2.91122 10.9046 2.86202 10.9686 2.82506C11.0326 2.7881 11.1032 2.76411 11.1765 2.75447C11.2497 2.74482 11.3242 2.74971 11.3956 2.76884C12.4383 3.04092 13.3897 3.58604 14.1518 4.34809C14.9138 5.11013 15.4589 6.06153 15.731 7.10431C15.7502 7.17569 15.755 7.25013 15.7454 7.3234C15.7358 7.39666 15.7118 7.46731 15.6748 7.5313C15.6378 7.59529 15.5886 7.65137 15.53 7.69634C15.4714 7.74131 15.4044 7.77428 15.3331 7.79337C15.2855 7.80585 15.2366 7.81223 15.1875 7.81236C15.0636 7.81235 14.9431 7.77141 14.8448 7.69588C14.7465 7.62035 14.6759 7.51448 14.644 7.3947C14.4221 6.54344 13.9772 5.76676 13.3551 5.14472C12.7331 4.52267 11.9564 4.07777 11.1052 3.85587C11.0337 3.83685 10.9667 3.80394 10.908 3.759C10.8493 3.71407 10.8 3.65799 10.763 3.594C10.7259 3.53 10.7019 3.45933 10.6922 3.38603C10.6825 3.31273 10.6874 3.23823 10.7065 3.16681ZM10.5427 6.10587C11.5123 6.36462 12.1352 6.98759 12.394 7.9572C12.4259 8.07698 12.4965 8.18285 12.5948 8.25838C12.6931 8.33391 12.8136 8.37485 12.9375 8.37486C12.9866 8.37473 13.0355 8.36835 13.0831 8.35587C13.1544 8.33678 13.2214 8.30381 13.28 8.25884C13.3386 8.21387 13.3878 8.15779 13.4248 8.0938C13.4618 8.02981 13.4858 7.95916 13.4954 7.8859C13.505 7.81263 13.5002 7.73819 13.481 7.66681C13.121 6.31962 12.1802 5.37884 10.8331 5.01884C10.7617 4.99977 10.6872 4.99495 10.614 5.00465C10.5408 5.01435 10.4702 5.03838 10.4062 5.07537C10.3422 5.11235 10.2862 5.16157 10.2413 5.22022C10.1963 5.27887 10.1634 5.34579 10.1443 5.41716C10.1253 5.48854 10.1205 5.56297 10.1302 5.63621C10.1398 5.70945 10.1639 5.78006 10.2009 5.84401C10.2379 5.90797 10.2871 5.96401 10.3457 6.00894C10.4044 6.05387 10.4713 6.08681 10.5427 6.10587ZM16.3041 12.8102C16.1787 13.7629 15.7108 14.6375 14.9878 15.2705C14.2647 15.9034 13.336 16.2516 12.375 16.2499C6.79219 16.2499 2.25001 11.7077 2.25001 6.12486C2.24828 5.16389 2.59643 4.23515 3.22941 3.51211C3.8624 2.78907 4.73694 2.32117 5.68969 2.1958C5.93062 2.16638 6.1746 2.21567 6.38522 2.33631C6.59583 2.45695 6.76178 2.64247 6.85829 2.86517L8.34329 6.1804V6.18884C8.41718 6.35932 8.44769 6.54544 8.43211 6.73058C8.41653 6.91573 8.35533 7.09413 8.25399 7.24986C8.24133 7.26884 8.22798 7.28642 8.21391 7.304L6.75001 9.03931C7.27665 10.1095 8.39602 11.219 9.48024 11.747L11.1916 10.2909C11.2085 10.2767 11.2261 10.2636 11.2444 10.2515C11.4 10.1477 11.579 10.0844 11.7652 10.0672C11.9515 10.05 12.1391 10.0795 12.311 10.1531L12.3202 10.1573L15.6326 11.6416C15.8557 11.7377 16.0417 11.9035 16.1627 12.1142C16.2837 12.3248 16.3333 12.569 16.3041 12.8102ZM15.1875 12.6695C15.1875 12.6695 15.1826 12.6695 15.1798 12.6695L11.8751 11.1895L10.163 12.6456C10.1464 12.6597 10.129 12.6729 10.1109 12.685C9.94905 12.793 9.76191 12.8572 9.56781 12.8712C9.37371 12.8853 9.17928 12.8487 9.00352 12.7652C7.68657 12.1288 6.37383 10.826 5.7368 9.52306C5.65245 9.34858 5.6146 9.15528 5.62691 8.96187C5.63923 8.76846 5.70131 8.58152 5.80712 8.41915C5.81904 8.40009 5.83244 8.38199 5.84719 8.36501L7.31251 6.62759L5.83594 3.3229C5.83567 3.3201 5.83567 3.31727 5.83594 3.31447C5.15409 3.40341 4.52805 3.73786 4.07505 4.25519C3.62205 4.77251 3.37316 5.43723 3.37501 6.12486C3.37761 8.51101 4.32666 10.7987 6.01392 12.4859C7.70119 14.1732 9.98886 15.1223 12.375 15.1249C13.0622 15.1272 13.7267 14.8792 14.2444 14.4272C14.762 13.9752 15.0973 13.3501 15.1875 12.6688V12.6695Z" />
  </symbol>
  <symbol xmlns="http://www.w3.org/2000/svg" viewBox="0 0 20 20" id="administration">
    <path d="M9 0C4.03 0 0 4.03 0 9s4.03 9 9 9 9-4.03 9-9-4.03-9-9-9zM1.11 9.68h2.51c.04.91.167 1.814.38 2.7H1.84c-.403-.85-.65-1.764-.73-2.7zm8.57-5.4V1.19c.964.366 1.756 1.08 2.22 2 .205.347.386.708.54 1.08l-2.76.01zm3.22 1.35c.232.883.37 1.788.41 2.7H9.68v-2.7h3.22zM8.32 1.19v3.09H5.56c.154-.372.335-.733.54-1.08.462-.924 1.255-1.64 2.22-2.01zm0 4.44v2.7H4.7c.04-.912.178-1.817.41-2.7h3.21zm-4.7 2.69H1.11c.08-.936.327-1.85.73-2.7H4c-.213.886-.34 1.79-.38 2.7zM4.7 9.68h3.62v2.7H5.11c-.232-.883-.37-1.788-.41-2.7zm3.63 4v3.09c-.964-.366-1.756-1.08-2.22-2-.205-.347-.386-.708-.54-1.08l2.76-.01zm1.35 3.09v-3.04h2.76c-.154.372-.335.733-.54 1.08-.464.92-1.256 1.634-2.22 2v-.04zm0-4.44v-2.7h3.62c-.04.912-.178 1.817-.41 2.7H9.68zm4.71-2.7h2.51c-.08.936-.327 1.85-.73 2.7H14c.21-.87.337-1.757.38-2.65l.01-.05zm0-1.35c-.046-.894-.176-1.78-.39-2.65h2.16c.403.85.65 1.764.73 2.7l-2.5-.05zm1-4H13.6c-.324-.91-.793-1.76-1.39-2.52 1.244.56 2.325 1.426 3.14 2.52h.04zm-9.6-2.52c-.597.76-1.066 1.61-1.39 2.52H2.65c.815-1.094 1.896-1.96 3.14-2.52zm-3.15 12H4.4c.324.91.793 1.76 1.39 2.52-1.248-.567-2.33-1.445-3.14-2.55l-.01.03zm9.56 2.52c.597-.76 1.066-1.61 1.39-2.52h1.76c-.82 1.08-1.9 1.933-3.14 2.48l-.01.04z"/>
  </symbol>
  <symbol xmlns="http://www.w3.org/2000/svg" viewBox="0 0 480 480" id="registry">
    <path d="M330 480H10c-5.523 0-10-4.478-10-10V60c0-5.523 4.477-10 10-10h80c5.523 0 10 4.477 10 10s-4.477 10-10 10H20v390h300V70h-70c-5.523 0-10-4.477-10-10s4.477-10 10-10h80c5.523 0 10 4.477 10 10v410c0 5.522-4.477 10-10 10z"></path>
    <path d="M250 120H90c-5.523 0-10-4.477-10-10V10c0-5.523 4.477-10 10-10h160c5.523 0 10 4.477 10 10v100c0 5.523-4.477 10-10 10zm-150-20h140V20H100z"></path>
    <path d="M170 90c-16.542 0-30-13.458-30-30s13.458-30 30-30 30 13.458 30 30-13.458 30-30 30zm0-40c-5.514 0-10 4.486-10 10s4.486 10 10 10 10-4.486 10-10-4.486-10-10-10zM110 240H50c-5.523 0-10-4.477-10-10v-60c0-5.523 4.477-10 10-10h60c5.523 0 10 4.477 10 10v60c0 5.523-4.477 10-10 10zm-50-20h40v-40H60zM290 190H150c-5.523 0-10-4.477-10-10s4.477-10 10-10h140c5.523 0 10 4.477 10 10s-4.477 10-10 10zM250 230H150c-5.523 0-10-4.477-10-10s4.477-10 10-10h100c5.523 0 10 4.477 10 10s-4.477 10-10 10zM110 340H50c-5.523 0-10-4.478-10-10v-60c0-5.522 4.477-10 10-10h60c5.523 0 10 4.478 10 10v60c0 5.522-4.477 10-10 10zm-50-20h40v-40H60zM290 290H150c-5.523 0-10-4.478-10-10s4.477-10 10-10h140c5.523 0 10 4.478 10 10s-4.477 10-10 10zM250 330H150c-5.523 0-10-4.478-10-10s4.477-10 10-10h100c5.523 0 10 4.478 10 10s-4.477 10-10 10zM110 440H50c-5.523 0-10-4.478-10-10v-60c0-5.522 4.477-10 10-10h60c5.523 0 10 4.478 10 10v60c0 5.522-4.477 10-10 10zm-50-20h40v-40H60zM290 390H150c-5.523 0-10-4.478-10-10s4.477-10 10-10h140c5.523 0 10 4.478 10 10s-4.477 10-10 10zM250 430H150c-5.523 0-10-4.478-10-10s4.477-10 10-10h100c5.523 0 10 4.478 10 10s-4.477 10-10 10zM440 480a9.999 9.999 0 0 1-8-4l-30-40a9.999 9.999 0 0 1-2-6V150c0-5.523 4.477-10 10-10h60c5.523 0 10 4.477 10 10v280c0 2.164-.702 4.27-2 6l-30 40a9.999 9.999 0 0 1-8 4zm-20-53.333 20 26.666 20-26.666V160h-40z"></path>
    <path d="M470 440h-60c-5.523 0-10-4.478-10-10s4.477-10 10-10h60c5.523 0 10 4.478 10 10s-4.477 10-10 10zM470 200h-60c-5.523 0-10-4.477-10-10s4.477-10 10-10h60c5.523 0 10 4.477 10 10s-4.477 10-10 10z"></path>
  </symbol>
  <symbol xmlns="http://www.w3.org/2000/svg" viewBox="0 0 32 42" id="file">
    <path opacity="1" fill-rule="evenodd" clip-rule="evenodd" d="M0 4C0 1.79086 1.79086 0 4 0H20.6716C21.202 0 21.7107 0.210714 22.0858 0.585786L31.4142 9.91421C31.7893 10.2893 32 10.798 32 11.3284V38C32 40.2091 30.2091 42 28 42H4C1.79086 42 0 40.2091 0 38V4ZM28 41.2H4C2.23269 41.2 0.8 39.7673 0.8 38V4C0.8 2.23269 2.23269 0.8 4 0.8H20.6716C20.7893 0.8 20.9053 0.817307 21.0161 0.850512C21.0057 0.886309 21 0.924829 21 0.965682V6C21 8.76142 23.2386 11 26 11H31.0343C31.0752 11 31.1137 10.9943 31.1495 10.9839C31.1827 11.0947 31.2 11.2107 31.2 11.3284V38C31.2 39.7673 29.7673 41.2 28 41.2ZM21.8 1.33894L30.6406 10.2H26C23.6804 10.2 21.8 8.31959 21.8 6V1.33894Z"/>
    <rect x="5" y="18" width="22" height="3"/>
    <rect x="5" y="24" width="22" height="3"/>
    <rect x="5" y="30" width="12" height="3"/>
  </symbol>
  <symbol xmlns="http://www.w3.org/2000/svg" viewBox="0 0 25 25" id="pdf">
    <path d="M7.438 14.786a.5.5 0 0 1-.5-.5v-3.572a.5.5 0 0 1 .5-.5h1.345a1.378 1.378 0 0 1 1.393 1.393A1.4 1.4 0 0 1 8.783 13h-.845v1.286a.5.5 0 0 1-.5.5zm.5-2.786h.845a.393.393 0 0 0 .393-.393.384.384 0 0 0-.393-.393h-.845zM12.727 14.792h-1.35a.5.5 0 0 1-.5-.5v-3.584a.5.5 0 0 1 .5-.5h1.35a1.4 1.4 0 0 1 1.4 1.4V13.4a1.4 1.4 0 0 1-1.4 1.392zm-.85-1h.85a.4.4 0 0 0 .4-.4V11.6a.4.4 0 0 0-.4-.4h-.85zM15.341 14.792a.5.5 0 0 1-.5-.5v-3.584a.5.5 0 0 1 .5-.5h2.245a.5.5 0 0 1 0 1h-1.745v3.084a.5.5 0 0 1-.5.5z" ></path>
    <path d="M17 13h-1.659a.5.5 0 0 1 0-1H17a.5.5 0 0 1 0 1z"></path>
    <path d="M15.611 21.614H6.623A2.418 2.418 0 0 1 4.208 19.2V5.8a2.418 2.418 0 0 1 2.415-2.414h11.754A2.418 2.418 0 0 1 20.792 5.8v10.634a.5.5 0 0 1-.147.353l-4.681 4.681a.5.5 0 0 1-.353.146zM6.623 4.386A1.417 1.417 0 0 0 5.208 5.8v13.4a1.417 1.417 0 0 0 1.415 1.414H15.4l4.388-4.387V5.8a1.417 1.417 0 0 0-1.415-1.414z"></path>
    <path d="M15.611 21.614a.5.5 0 0 1-.5-.5v-2.765a2.417 2.417 0 0 1 2.414-2.415h2.767a.5.5 0 0 1 0 1h-2.767a1.416 1.416 0 0 0-1.414 1.415v2.765a.5.5 0 0 1-.5.5z"></path>
  </symbol>
  <symbol xmlns="http://www.w3.org/2000/svg" viewBox="0 0 32 42" id="video">
    <path opacity="1" fill-rule="evenodd" clip-rule="evenodd" d="M0 4C0 1.79086 1.79086 0 4 0H20.6716C21.202 0 21.7107 0.210714 22.0858 0.585786L31.4142 9.91421C31.7893 10.2893 32 10.798 32 11.3284V38C32 40.2091 30.2091 42 28 42H4C1.79086 42 0 40.2091 0 38V4ZM28 41.2H4C2.23269 41.2 0.8 39.7673 0.8 38V4C0.8 2.23269 2.23269 0.8 4 0.8H20.6716C20.7893 0.8 20.9053 0.817307 21.0161 0.850512C21.0057 0.886309 21 0.924829 21 0.965682V6C21 8.76142 23.2386 11 26 11H31.0343C31.0752 11 31.1137 10.9943 31.1495 10.9839C31.1827 11.0947 31.2 11.2107 31.2 11.3284V38C31.2 39.7673 29.7673 41.2 28 41.2ZM21.8 1.33894L30.6406 10.2H26C23.6804 10.2 21.8 8.31959 21.8 6V1.33894Z"/>
    <path d="M18.3299 20.2222H9.11111C8.49769 20.2229 8.00072 20.7199 8 21.3333V28.6452C8.00072 29.2586 8.49769 29.7556 9.11111 29.7563H18.3299C18.9431 29.7556 19.4402 29.2586 19.441 28.6452V21.3333C19.4402 20.7199 18.9431 20.2229 18.3299 20.2222Z"/>
    <path d="M20.1816 26.5112L23.9999 28.5958V21.4067L20.1816 23.4914V26.5112Z"/>
  </symbol>
  <symbol xmlns="http://www.w3.org/2000/svg" viewBox="0 0 24 24" id="dow-2">
    <path d="M12.5535 16.5061C12.4114 16.6615 12.2106 16.75 12 16.75C11.7894 16.75 11.5886 16.6615 11.4465 16.5061L7.44648 12.1311C7.16698 11.8254 7.18822 11.351 7.49392 11.0715C7.79963 10.792 8.27402 10.8132 8.55352 11.1189L11.25 14.0682V3C11.25 2.58579 11.5858 2.25 12 2.25C12.4142 2.25 12.75 2.58579 12.75 3V14.0682L15.4465 11.1189C15.726 10.8132 16.2004 10.792 16.5061 11.0715C16.8118 11.351 16.833 11.8254 16.5535 12.1311L12.5535 16.5061Z"></path>
    <path d="M3.75 15C3.75 14.5858 3.41422 14.25 3 14.25C2.58579 14.25 2.25 14.5858 2.25 15V15.0549C2.24998 16.4225 2.24996 17.5248 2.36652 18.3918C2.48754 19.2919 2.74643 20.0497 3.34835 20.6516C3.95027 21.2536 4.70814 21.5125 5.60825 21.6335C6.47522 21.75 7.57754 21.75 8.94513 21.75H15.0549C16.4225 21.75 17.5248 21.75 18.3918 21.6335C19.2919 21.5125 20.0497 21.2536 20.6517 20.6516C21.2536 20.0497 21.5125 19.2919 21.6335 18.3918C21.75 17.5248 21.75 16.4225 21.75 15.0549V15C21.75 14.5858 21.4142 14.25 21 14.25C20.5858 14.25 20.25 14.5858 20.25 15C20.25 16.4354 20.2484 17.4365 20.1469 18.1919C20.0482 18.9257 19.8678 19.3142 19.591 19.591C19.3142 19.8678 18.9257 20.0482 18.1919 20.1469C17.4365 20.2484 16.4354 20.25 15 20.25H9C7.56459 20.25 6.56347 20.2484 5.80812 20.1469C5.07435 20.0482 4.68577 19.8678 4.40901 19.591C4.13225 19.3142 3.9518 18.9257 3.85315 18.1919C3.75159 17.4365 3.75 16.4354 3.75 15Z"></path>
  </symbol>
</svg>